<svg xmlns="http://www.w3.org/2000/svg" xmlns:xlink="http://www.w3.org/1999/xlink" width="500" zoomAndPan="magnify" viewBox="0 0 375 187.499995" height="250" preserveAspectRatio="xMidYMid meet" version="1.0"><defs><g/><clipPath id="44309e0e38"><path d="M 78.195312 12 L 222 12 L 222 105 L 78.195312 105 Z M 78.195312 12 " clip-rule="nonzero"/></clipPath></defs><g clip-path="url(#44309e0e38)"><path fill="#ffffff" d="M 157.0625 92.808594 C 157.394531 92.539062 157.714844 92.257812 158.042969 91.980469 L 158.285156 91.769531 L 158.542969 91.542969 L 159.054688 91.085938 C 159.433594 90.75 159.644531 90.539062 159.910156 90.289062 L 160.378906 89.84375 L 160.808594 89.414062 C 161.390625 88.84375 161.941406 88.265625 162.492188 87.6875 C 163.578125 86.527344 164.628906 85.363281 165.613281 84.183594 C 166.59375 83 167.539062 81.816406 168.429688 80.632812 C 169.332031 79.453125 170.1875 78.269531 170.996094 77.089844 C 172.632812 74.734375 174.125 72.40625 175.515625 70.125 C 176.917969 67.847656 178.203125 65.613281 179.449219 63.449219 C 181.925781 59.117188 184.183594 55.039062 186.390625 51.28125 C 188.601562 47.527344 190.75 44.070312 192.945312 40.980469 C 197.292969 34.769531 201.820312 29.957031 206.105469 26.453125 C 207.175781 25.574219 208.214844 24.761719 209.230469 24.042969 C 209.730469 23.671875 210.230469 23.332031 210.710938 22.988281 C 211.195312 22.65625 211.671875 22.347656 212.132812 22.042969 C 213.058594 21.457031 213.933594 20.917969 214.746094 20.4375 C 215.148438 20.1875 215.546875 19.980469 215.921875 19.765625 C 216.292969 19.554688 216.652344 19.359375 216.996094 19.179688 C 217.679688 18.804688 218.285156 18.480469 218.816406 18.222656 C 219.34375 17.953125 219.792969 17.71875 220.164062 17.546875 C 220.894531 17.1875 221.273438 17.003906 221.273438 17.003906 C 221.273438 17.003906 220.851562 17.019531 220.039062 17.054688 C 219.628906 17.074219 219.125 17.101562 218.519531 17.164062 C 217.914062 17.214844 217.214844 17.292969 216.425781 17.390625 C 213.277344 17.820312 208.585938 18.6875 202.910156 21.074219 C 200.082031 22.261719 197.03125 23.84375 193.878906 25.863281 C 190.726562 27.882812 187.523438 30.390625 184.339844 33.277344 C 181.167969 36.179688 178.023438 39.46875 174.96875 43.035156 C 173.425781 44.8125 171.917969 46.667969 170.390625 48.546875 C 168.882812 50.4375 167.363281 52.359375 165.847656 54.304688 C 159.773438 62.0625 153.566406 70.167969 146.054688 76.140625 L 145.757812 76.371094 L 145.609375 76.488281 L 145.4375 76.617188 C 145.207031 76.785156 144.980469 76.960938 144.75 77.125 C 144.289062 77.460938 143.816406 77.78125 143.34375 78.097656 C 142.394531 78.722656 141.421875 79.304688 140.429688 79.847656 C 138.445312 80.925781 136.367188 81.792969 134.238281 82.460938 C 133.171875 82.789062 132.089844 83.0625 131 83.273438 C 129.910156 83.488281 128.8125 83.648438 127.710938 83.738281 C 125.503906 83.917969 123.28125 83.851562 121.097656 83.527344 C 118.914062 83.183594 116.761719 82.601562 114.710938 81.742188 C 113.6875 81.308594 112.691406 80.808594 111.71875 80.257812 C 110.75 79.703125 109.8125 79.082031 108.910156 78.398438 C 108.019531 77.707031 107.152344 76.972656 106.332031 76.171875 C 105.929688 75.765625 105.523438 75.359375 105.144531 74.921875 L 105 74.761719 C 105.007812 74.777344 104.871094 74.613281 105.003906 74.777344 L 104.90625 74.660156 L 104.527344 74.195312 C 104.367188 73.984375 104.269531 73.878906 104.085938 73.625 C 102.757812 71.847656 101.65625 69.863281 100.835938 67.703125 C 99.191406 63.398438 98.71875 58.402344 99.464844 53.574219 C 100.199219 48.742188 102.21875 44.125 105.160156 40.609375 C 108.117188 37.085938 111.957031 34.738281 116.40625 33.753906 C 119.515625 33.058594 122.953125 33.070312 126.492188 33.664062 C 126.589844 34.355469 126.722656 35.046875 126.902344 35.738281 C 129.46875 45.679688 139.605469 51.660156 149.542969 49.09375 C 159.480469 46.527344 165.453125 36.382812 162.890625 26.4375 C 160.324219 16.496094 150.1875 10.515625 140.25 13.082031 C 137.71875 13.734375 135.453125 14.878906 133.511719 16.386719 C 132.742188 16.171875 131.964844 15.96875 131.175781 15.785156 C 129.265625 15.332031 127.300781 14.984375 125.28125 14.765625 C 121.253906 14.316406 117.023438 14.375 112.796875 15.144531 C 108.574219 15.894531 104.378906 17.378906 100.5625 19.542969 C 96.738281 21.691406 93.316406 24.507812 90.441406 27.710938 C 87.570312 30.925781 85.234375 34.523438 83.457031 38.320312 C 81.671875 42.121094 80.417969 46.109375 79.683594 50.175781 C 78.199219 58.304688 78.796875 66.804688 81.601562 74.71875 C 83.007812 78.664062 84.976562 82.453125 87.464844 85.863281 C 87.75 86.261719 88.152344 86.785156 88.484375 87.210938 L 88.863281 87.683594 L 89.402344 88.339844 C 90.054688 89.136719 90.742188 89.902344 91.445312 90.652344 C 92.859375 92.148438 94.371094 93.550781 95.972656 94.835938 C 102.378906 100.003906 110.15625 103.289062 118.027344 104.40625 C 119.992188 104.683594 121.964844 104.84375 123.925781 104.882812 C 125.886719 104.917969 127.835938 104.816406 129.753906 104.617188 C 133.597656 104.222656 137.320312 103.335938 140.832031 102.097656 C 144.347656 100.871094 147.640625 99.253906 150.679688 97.394531 C 152.199219 96.46875 153.652344 95.476562 155.035156 94.417969 C 155.726562 93.890625 156.402344 93.359375 157.0625 92.808594 " fill-opacity="1" fill-rule="nonzero"/></g><path fill="#5600e3" d="M 293.21875 48.738281 C 291.8125 44.789062 289.84375 41.003906 287.355469 37.59375 C 287.074219 37.195312 286.667969 36.671875 286.335938 36.246094 L 285.957031 35.773438 L 285.417969 35.113281 C 284.765625 34.320312 284.078125 33.554688 283.375 32.804688 C 281.960938 31.308594 280.449219 29.902344 278.847656 28.617188 C 272.441406 23.449219 264.664062 20.164062 256.792969 19.050781 C 254.828125 18.773438 252.855469 18.613281 250.894531 18.574219 C 248.933594 18.539062 246.984375 18.636719 245.066406 18.839844 C 241.222656 19.238281 237.5 20.121094 233.988281 21.355469 C 230.472656 22.585938 227.179688 24.203125 224.144531 26.0625 C 222.621094 26.988281 221.167969 27.984375 219.785156 29.035156 C 219.09375 29.5625 218.417969 30.097656 217.757812 30.648438 C 217.425781 30.917969 217.101562 31.199219 216.777344 31.476562 L 216.535156 31.6875 L 216.277344 31.914062 L 215.765625 32.371094 C 215.390625 32.707031 215.175781 32.917969 214.910156 33.167969 L 214.441406 33.613281 L 214.007812 34.042969 C 213.429688 34.613281 212.878906 35.191406 212.328125 35.769531 C 211.242188 36.929688 210.191406 38.09375 209.207031 39.273438 C 208.226562 40.457031 207.28125 41.640625 206.390625 42.824219 C 205.488281 44.003906 204.632812 45.1875 203.824219 46.367188 C 202.1875 48.722656 200.695312 51.046875 199.304688 53.332031 C 197.902344 55.605469 196.617188 57.84375 195.371094 60.007812 C 192.894531 64.339844 190.636719 68.417969 188.429688 72.175781 C 186.21875 75.929688 184.070312 79.386719 181.875 82.480469 C 177.527344 88.6875 173 93.5 168.714844 97.003906 C 167.644531 97.882812 166.605469 98.695312 165.589844 99.414062 C 165.089844 99.785156 164.589844 100.125 164.109375 100.46875 C 163.625 100.800781 163.148438 101.105469 162.6875 101.414062 C 161.761719 102 160.886719 102.535156 160.074219 103.019531 C 159.671875 103.265625 159.273438 103.472656 158.898438 103.6875 C 158.527344 103.902344 158.167969 104.097656 157.824219 104.277344 C 157.144531 104.652344 156.535156 104.972656 156.003906 105.234375 C 155.476562 105.503906 155.027344 105.738281 154.65625 105.910156 C 153.925781 106.269531 153.546875 106.453125 153.546875 106.453125 C 153.546875 106.453125 153.96875 106.4375 154.785156 106.402344 C 155.191406 106.382812 155.695312 106.351562 156.300781 106.292969 C 156.90625 106.242188 157.605469 106.164062 158.394531 106.066406 C 161.542969 105.636719 166.234375 104.769531 171.910156 102.382812 C 174.738281 101.195312 177.789062 99.609375 180.941406 97.59375 C 184.09375 95.574219 187.296875 93.066406 190.480469 90.179688 C 193.652344 87.277344 196.796875 83.988281 199.855469 80.421875 C 201.394531 78.644531 202.902344 76.789062 204.429688 74.910156 C 205.9375 73.019531 207.457031 71.097656 208.972656 69.152344 C 215.046875 61.394531 221.253906 53.289062 228.765625 47.316406 L 229.0625 47.085938 L 229.210938 46.96875 L 229.382812 46.839844 C 229.613281 46.671875 229.839844 46.496094 230.070312 46.332031 C 230.53125 45.996094 231.003906 45.675781 231.476562 45.359375 C 232.425781 44.734375 233.398438 44.152344 234.390625 43.609375 C 236.375 42.527344 238.457031 41.664062 240.582031 40.996094 C 241.648438 40.667969 242.730469 40.394531 243.820312 40.183594 C 244.910156 39.96875 246.007812 39.808594 247.109375 39.714844 C 249.316406 39.539062 251.539062 39.605469 253.726562 39.929688 C 255.90625 40.269531 258.058594 40.855469 260.109375 41.710938 C 261.132812 42.148438 262.128906 42.648438 263.101562 43.195312 C 264.070312 43.753906 265.007812 44.375 265.910156 45.058594 C 266.800781 45.75 267.667969 46.484375 268.488281 47.285156 C 268.894531 47.691406 269.296875 48.101562 269.679688 48.535156 L 269.820312 48.695312 C 269.8125 48.679688 269.949219 48.84375 269.816406 48.679688 L 269.914062 48.796875 L 270.292969 49.261719 C 270.453125 49.472656 270.546875 49.578125 270.734375 49.832031 C 272.0625 51.609375 273.167969 53.59375 273.984375 55.753906 C 275.628906 60.0625 276.105469 65.054688 275.355469 69.882812 C 274.621094 74.714844 272.605469 79.332031 269.660156 82.84375 C 266.703125 86.371094 262.867188 88.71875 258.414062 89.699219 C 255.304688 90.398438 251.867188 90.382812 248.328125 89.792969 C 248.230469 89.101562 248.097656 88.410156 247.917969 87.71875 C 245.351562 77.773438 235.214844 71.796875 225.277344 74.363281 C 215.339844 76.929688 209.363281 87.074219 211.929688 97.019531 C 214.496094 106.960938 224.632812 112.941406 234.570312 110.375 C 237.097656 109.71875 239.371094 108.574219 241.308594 107.070312 C 242.078125 107.285156 242.855469 107.488281 243.644531 107.671875 C 245.554688 108.121094 247.523438 108.472656 249.539062 108.691406 C 253.566406 109.136719 257.796875 109.078125 262.023438 108.316406 C 266.246094 107.5625 270.441406 106.078125 274.257812 103.914062 C 278.082031 101.765625 281.503906 98.949219 284.378906 95.742188 C 287.25 92.53125 289.589844 88.933594 291.367188 85.132812 C 293.148438 81.339844 294.402344 77.347656 295.136719 73.28125 C 296.621094 65.152344 296.023438 56.652344 293.21875 48.738281 " fill-opacity="1" fill-rule="nonzero"/><g fill="#5600e3" fill-opacity="1"><g transform="translate(-0.757955, 171.011257)"><g><path d="M 36.160156 -38.644531 L 31.84375 -38.644531 C 31.421875 -38.644531 30.53125 -38.503906 30.53125 -37.050781 L 30.53125 -13.929688 C 30.53125 -12.523438 30.4375 -11.304688 30.296875 -10.410156 C 30.15625 -9.519531 29.875 -8.816406 29.546875 -8.300781 C 29.171875 -7.832031 28.75 -7.503906 28.140625 -7.269531 C 27.53125 -7.082031 26.6875 -6.941406 25.699219 -6.941406 L 15.570312 -6.941406 C 14.585938 -6.941406 13.742188 -7.082031 13.132812 -7.269531 C 12.523438 -7.503906 12.101562 -7.832031 11.726562 -8.300781 C 11.398438 -8.816406 11.117188 -9.519531 10.925781 -10.410156 C 10.785156 -11.304688 10.691406 -12.523438 10.691406 -13.929688 L 10.691406 -37.050781 C 10.691406 -38.503906 9.800781 -38.644531 9.378906 -38.644531 L 5.113281 -38.644531 C 4.691406 -38.644531 3.753906 -38.503906 3.753906 -37.050781 L 3.753906 -14.679688 C 3.753906 -12.054688 3.941406 -9.800781 4.363281 -7.972656 C 4.785156 -6.097656 5.488281 -4.550781 6.425781 -3.375 C 7.316406 -2.15625 8.582031 -1.3125 10.035156 -0.75 C 11.492188 -0.234375 13.273438 0 15.335938 0 L 25.890625 0 C 27.953125 0 29.734375 -0.234375 31.1875 -0.75 C 32.6875 -1.3125 33.910156 -2.15625 34.847656 -3.375 C 35.785156 -4.550781 36.441406 -6.097656 36.863281 -7.972656 C 37.285156 -9.800781 37.472656 -12.054688 37.472656 -14.679688 L 37.472656 -37.050781 C 37.472656 -38.503906 36.582031 -38.644531 36.160156 -38.644531 Z M 36.160156 -38.644531 "/></g></g></g><g fill="#5600e3" fill-opacity="1"><g transform="translate(39.004425, 171.011257)"><g><path d="M 30.8125 -6.941406 L 15.570312 -6.941406 C 14.585938 -6.941406 13.789062 -7.035156 13.132812 -7.269531 C 12.570312 -7.457031 12.101562 -7.785156 11.773438 -8.300781 C 11.398438 -8.816406 11.117188 -9.519531 10.972656 -10.363281 C 10.785156 -11.304688 10.738281 -12.476562 10.738281 -13.882812 L 10.738281 -37.003906 C 10.738281 -38.503906 9.800781 -38.644531 9.425781 -38.644531 L 5.113281 -38.644531 C 4.691406 -38.644531 3.753906 -38.503906 3.753906 -37.003906 L 3.753906 -14.679688 C 3.753906 -12.054688 3.988281 -9.800781 4.410156 -7.972656 C 4.832031 -6.097656 5.488281 -4.550781 6.425781 -3.375 C 7.363281 -2.15625 8.582031 -1.265625 10.082031 -0.75 C 11.492188 -0.234375 13.273438 0.046875 15.335938 0.046875 L 30.8125 0.046875 C 31.234375 0.046875 32.125 -0.140625 32.125 -1.59375 L 32.125 -5.300781 C 32.125 -6.753906 31.234375 -6.941406 30.8125 -6.941406 Z M 30.8125 -6.941406 "/></g></g></g><g fill="#5600e3" fill-opacity="1"><g transform="translate(73.421287, 171.011257)"><g><path d="M 36.160156 -38.644531 L 5.113281 -38.644531 C 4.691406 -38.644531 3.753906 -38.503906 3.753906 -37.050781 L 3.753906 -33.394531 C 3.753906 -31.84375 4.691406 -31.703125 5.113281 -31.703125 L 17.164062 -31.703125 L 17.164062 -1.59375 C 17.164062 -0.140625 18.101562 0 18.480469 0 L 22.792969 0 C 23.214844 0 24.105469 -0.140625 24.105469 -1.59375 L 24.105469 -31.703125 L 36.160156 -31.703125 C 36.582031 -31.703125 37.519531 -31.84375 37.519531 -33.394531 L 37.519531 -37.050781 C 37.519531 -38.503906 36.582031 -38.644531 36.160156 -38.644531 Z M 36.160156 -38.644531 "/></g></g></g><g fill="#5600e3" fill-opacity="1"><g transform="translate(113.230568, 171.011257)"><g><path d="M 35.738281 -27.4375 C 35.738281 -27.390625 35.738281 -27.34375 35.738281 -27.296875 C 35.738281 -27.25 35.738281 -27.203125 35.738281 -27.15625 Z M 36.628906 -2.015625 L 28.421875 -16.085938 C 30.71875 -16.367188 32.5 -17.351562 33.675781 -18.949219 C 34.988281 -20.871094 35.691406 -23.636719 35.738281 -27.296875 C 35.691406 -30.953125 34.988281 -33.722656 33.675781 -35.644531 C 32.265625 -37.660156 29.921875 -38.644531 26.734375 -38.644531 L 5.113281 -38.644531 C 4.691406 -38.644531 3.753906 -38.503906 3.753906 -37.003906 L 3.753906 -33.300781 C 3.753906 -31.84375 4.691406 -31.703125 5.113281 -31.703125 L 25.511719 -31.703125 C 26.734375 -31.703125 27.53125 -31.375 28 -30.671875 C 28.515625 -29.96875 28.75 -28.84375 28.75 -27.296875 C 28.75 -25.75 28.515625 -24.621094 28 -23.917969 C 27.53125 -23.214844 26.734375 -22.886719 25.511719 -22.886719 L 5.113281 -22.886719 C 4.691406 -22.886719 3.753906 -22.746094 3.753906 -21.292969 L 3.753906 -1.59375 C 3.753906 -0.140625 4.691406 0.046875 5.113281 0.046875 L 9.378906 0.046875 C 9.800781 0.046875 10.691406 -0.140625 10.691406 -1.59375 L 10.691406 -15.945312 L 20.589844 -15.945312 L 29.078125 -0.890625 C 29.265625 -0.609375 29.40625 -0.375 29.59375 -0.234375 C 29.828125 -0.046875 30.15625 0.046875 30.578125 0.046875 L 35.738281 0.046875 C 36.300781 0.046875 36.722656 -0.328125 36.816406 -0.890625 C 36.863281 -1.359375 36.816406 -1.734375 36.628906 -2.015625 Z M 36.628906 -2.015625 "/></g></g></g><g fill="#5600e3" fill-opacity="1"><g transform="translate(152.383375, 171.011257)"><g><path d="M 28.890625 -34.285156 C 28.796875 -34.519531 28.703125 -34.800781 28.609375 -34.988281 C 27.859375 -37.425781 25.605469 -39.160156 23.027344 -39.160156 C 21.855469 -39.160156 20.730469 -38.832031 19.792969 -38.175781 C 19.511719 -38.035156 19.277344 -37.847656 19.089844 -37.707031 C 18.386719 -37.097656 17.679688 -35.972656 17.023438 -34.285156 L 3.941406 -1.78125 C 3.800781 -1.359375 3.753906 -0.9375 3.847656 -0.65625 C 3.894531 -0.375 4.128906 0.046875 4.878906 0.046875 L 10.035156 0.046875 C 10.644531 0.046875 11.117188 -0.328125 11.351562 -0.9375 L 14.023438 -7.644531 L 24.292969 -7.644531 C 24.808594 -7.644531 25.277344 -7.878906 25.511719 -8.300781 C 25.796875 -8.675781 25.84375 -9.191406 25.699219 -9.660156 L 24.011719 -13.835938 C 23.777344 -14.398438 23.261719 -14.773438 22.652344 -14.773438 L 16.835938 -14.773438 L 22.839844 -29.96875 C 22.886719 -30.0625 22.933594 -30.109375 22.933594 -30.109375 L 23.121094 -30.109375 C 23.121094 -30.109375 23.121094 -30.109375 23.167969 -30.015625 L 34.800781 -0.984375 C 35.035156 -0.328125 35.503906 0.046875 36.160156 0.046875 L 41.179688 0.046875 C 41.929688 0.046875 42.117188 -0.421875 42.210938 -0.65625 C 42.304688 -0.9375 42.257812 -1.359375 42.070312 -1.78125 Z M 28.890625 -34.285156 "/></g></g></g><g fill="#001140" fill-opacity="1"><g transform="translate(196.972566, 171.011257)"><g/></g></g><g fill="#ffffff" fill-opacity="1"><g transform="translate(219.61141, 171.011257)"><g><path d="M 36.160156 -38.644531 L 5.113281 -38.644531 C 4.691406 -38.644531 3.753906 -38.503906 3.753906 -37.050781 L 3.753906 -33.394531 C 3.753906 -31.84375 4.691406 -31.703125 5.113281 -31.703125 L 17.164062 -31.703125 L 17.164062 -1.59375 C 17.164062 -0.140625 18.101562 0 18.480469 0 L 22.792969 0 C 23.214844 0 24.105469 -0.140625 24.105469 -1.59375 L 24.105469 -31.703125 L 36.160156 -31.703125 C 36.582031 -31.703125 37.519531 -31.84375 37.519531 -33.394531 L 37.519531 -37.050781 C 37.519531 -38.503906 36.582031 -38.644531 36.160156 -38.644531 Z M 36.160156 -38.644531 "/></g></g></g><g fill="#ffffff" fill-opacity="1"><g transform="translate(259.420687, 171.011257)"><g><path d="M 31.9375 -8.394531 L 15.429688 -8.394531 C 14.445312 -8.394531 13.648438 -8.535156 12.992188 -8.722656 C 12.382812 -8.957031 11.960938 -9.285156 11.585938 -9.753906 C 11.210938 -10.269531 10.925781 -10.972656 10.785156 -11.867188 C 10.738281 -12.101562 10.738281 -12.429688 10.691406 -12.664062 C 10.691406 -12.664062 10.738281 -16.039062 10.785156 -16.039062 L 31.75 -16.039062 C 32.125 -16.039062 33.0625 -16.226562 33.0625 -17.679688 L 33.0625 -21.386719 C 33.0625 -22.839844 32.125 -22.980469 31.75 -22.980469 L 7.550781 -22.933594 C 6.191406 -22.839844 5.019531 -22.136719 4.363281 -20.964844 C 4.128906 -20.589844 3.941406 -20.214844 3.847656 -19.792969 L 3.753906 -13.882812 L 3.753906 -13.648438 C 3.800781 -11.445312 4.035156 -9.566406 4.363281 -8.019531 C 4.785156 -6.144531 5.488281 -4.597656 6.378906 -3.421875 C 7.316406 -2.203125 8.535156 -1.359375 10.035156 -0.84375 C 11.492188 -0.28125 13.226562 -0.046875 15.289062 -0.046875 L 31.9375 -0.046875 C 32.359375 -0.046875 33.300781 -0.1875 33.300781 -1.640625 L 33.300781 -6.800781 C 33.300781 -8.253906 32.359375 -8.394531 31.9375 -8.394531 Z M 31.984375 -38.738281 L 5.019531 -38.738281 C 4.644531 -38.738281 3.753906 -38.550781 3.753906 -37.050781 L 3.753906 -33.394531 C 3.753906 -31.9375 4.644531 -31.796875 5.019531 -31.796875 L 31.984375 -31.75 C 32.359375 -31.75 33.300781 -31.9375 33.300781 -33.394531 L 33.300781 -37.097656 C 33.300781 -38.550781 32.359375 -38.738281 31.984375 -38.738281 Z M 31.984375 -38.738281 "/></g></g></g><g fill="#ffffff" fill-opacity="1"><g transform="translate(295.009812, 171.011257)"><g><path d="M 32.40625 -38.644531 L 15.335938 -38.644531 C 13.273438 -38.644531 11.492188 -38.363281 10.035156 -37.847656 C 8.535156 -37.285156 7.316406 -36.394531 6.425781 -35.222656 C 5.488281 -34.050781 4.785156 -32.5 4.363281 -30.625 C 3.941406 -28.796875 3.753906 -26.546875 3.753906 -23.964844 L 3.753906 -14.679688 C 3.753906 -12.054688 3.941406 -9.800781 4.363281 -7.925781 C 4.785156 -6.097656 5.488281 -4.550781 6.425781 -3.328125 C 7.363281 -2.15625 8.582031 -1.265625 10.035156 -0.75 C 11.492188 -0.234375 13.273438 0.046875 15.335938 0.046875 L 32.40625 0.046875 C 32.78125 0.046875 33.722656 -0.140625 33.722656 -1.59375 L 33.722656 -5.300781 C 33.722656 -6.753906 32.78125 -6.941406 32.40625 -6.941406 L 15.570312 -6.941406 C 14.585938 -6.941406 13.742188 -7.035156 13.132812 -7.269531 C 12.523438 -7.457031 12.101562 -7.785156 11.726562 -8.300781 C 11.351562 -8.769531 11.117188 -9.472656 10.925781 -10.363281 C 10.785156 -11.304688 10.691406 -12.476562 10.691406 -13.882812 L 10.691406 -24.808594 C 10.691406 -26.21875 10.785156 -27.390625 10.925781 -28.28125 C 11.117188 -29.171875 11.351562 -29.828125 11.726562 -30.34375 C 12.101562 -30.859375 12.523438 -31.1875 13.132812 -31.375 C 13.742188 -31.609375 14.585938 -31.703125 15.570312 -31.703125 L 32.40625 -31.703125 C 32.78125 -31.703125 33.722656 -31.890625 33.722656 -33.394531 L 33.722656 -37.003906 C 33.722656 -38.457031 32.78125 -38.644531 32.40625 -38.644531 Z M 32.40625 -38.644531 "/></g></g></g><g fill="#ffffff" fill-opacity="1"><g transform="translate(331.02096, 171.011257)"><g><path d="M 34.050781 -38.644531 L 29.734375 -38.644531 C 29.359375 -38.644531 28.46875 -38.457031 28.46875 -37.003906 L 28.46875 -22.980469 L 10.691406 -22.980469 L 10.691406 -37.003906 C 10.691406 -38.457031 9.800781 -38.644531 9.378906 -38.644531 L 5.113281 -38.644531 C 4.691406 -38.644531 3.753906 -38.457031 3.753906 -37.003906 L 3.753906 -1.59375 C 3.753906 -0.140625 4.691406 0.046875 5.113281 0.046875 L 9.378906 0.046875 C 9.800781 0.046875 10.691406 -0.140625 10.691406 -1.59375 L 10.691406 -16.039062 L 28.46875 -16.039062 L 28.46875 -1.59375 C 28.46875 -0.140625 29.359375 0.046875 29.734375 0.046875 L 34.050781 0.046875 C 34.472656 0.046875 35.410156 -0.140625 35.410156 -1.59375 L 35.410156 -37.003906 C 35.410156 -38.457031 34.472656 -38.644531 34.050781 -38.644531 Z M 34.050781 -38.644531 "/></g></g></g></svg>