<svg xmlns="http://www.w3.org/2000/svg" version="1.1" xmlns:xlink="http://www.w3.org/1999/xlink" xmlns:svgjs="http://svgjs.dev/svgjs" viewBox="0 0 18.847984049161667 17.01529628328371"><g transform="matrix(1,0,0,1,1.4919605245808336,12.339885349611968)"><g><path d=" M 0.555024 0.24617999999999984 L 0.555024 1.1615219999999997 Q 0.555024 1.289088 0.614331 1.358466 Q 0.673638 1.427844 0.79449 1.427844 Q 0.915342 1.427844 0.976887 1.3573469999999999 Q 1.038432 1.2868499999999998 1.038432 1.1615219999999997 L 1.038432 0.24617999999999984 L 1.47708 0.24617999999999984 L 1.47708 1.1615219999999997 Q 1.47708 1.3786079999999998 1.385322 1.5319109999999998 Q 1.293564 1.6852139999999998 1.135785 1.762425 Q 0.978006 1.8396359999999998 0.785538 1.8396359999999998 Q 0.59307 1.8396359999999998 0.442005 1.762425 Q 0.29094 1.6852139999999998 0.204777 1.53303 Q 0.118614 1.3808459999999998 0.118614 1.1615219999999997 L 0.118614 0.24617999999999984 Z M 2.411445 1.48827 L 2.901567 1.48827 L 2.901567 1.8239699999999999 L 1.972797 1.8239699999999999 L 1.972797 0.24617999999999984 L 2.411445 0.24617999999999984 Z M 4.5140460000000004 0.24617999999999984 L 4.5140460000000004 0.595308 L 4.093302 0.595308 L 4.093302 1.8239699999999999 L 3.6546540000000003 1.8239699999999999 L 3.6546540000000003 0.595308 L 3.238386 0.595308 L 3.238386 0.24617999999999984 Z M 5.730399 1.8239699999999999 L 5.417079 1.24209 L 5.370081000000001 1.24209 L 5.370081000000001 1.8239699999999999 L 4.931433 1.8239699999999999 L 4.931433 0.24617999999999984 L 5.622975 0.24617999999999984 Q 5.813205 0.24617999999999984 5.945247 0.31220099999999995 Q 6.077289 0.37822199999999984 6.144429000000001 0.4934789999999998 Q 6.211569000000001 0.6087359999999999 6.211569000000001 0.751968 Q 6.211569000000001 0.9131039999999999 6.123168000000001 1.035075 Q 6.034767 1.1570459999999998 5.864679000000001 1.20852 L 6.220521000000001 1.8239699999999999 Z M 5.370081000000001 0.9421979999999999 L 5.587167000000001 0.9421979999999999 Q 5.676687 0.9421979999999999 5.721447 0.8996759999999999 Q 5.7662070000000005 0.8571539999999999 5.7662070000000005 0.7765859999999998 Q 5.7662070000000005 0.700494 5.720328 0.6568529999999999 Q 5.674449000000001 0.6132119999999999 5.587167000000001 0.6132119999999999 L 5.370081000000001 0.6132119999999999 Z M 7.662912 1.5665999999999998 L 7.1034120000000005 1.5665999999999998 L 7.018368000000001 1.8239699999999999 L 6.55734 1.8239699999999999 L 7.132506 0.24617999999999984 L 7.638294 0.24617999999999984 L 8.211222 1.8239699999999999 L 7.747956 1.8239699999999999 Z M 7.55325 1.2308999999999999 L 7.3831620000000004 0.7206359999999998 L 7.215312 1.2308999999999999 Z M 10.478316000000001 0.24617999999999984 L 10.478316000000001 0.595308 L 10.057572000000002 0.595308 L 10.057572000000002 1.8239699999999999 L 9.618924000000002 1.8239699999999999 L 9.618924000000002 0.595308 L 9.202656000000001 0.595308 L 9.202656000000001 0.24617999999999984 Z M 11.334351000000002 0.5975459999999999 L 11.334351000000002 0.8549159999999999 L 11.837901000000002 0.8549159999999999 L 11.837901000000002 1.1883779999999997 L 11.334351000000002 1.1883779999999997 L 11.334351000000002 1.4726039999999998 L 11.905041 1.4726039999999998 L 11.905041 1.8239699999999999 L 10.895703000000001 1.8239699999999999 L 10.895703000000001 0.24617999999999984 L 11.905041 0.24617999999999984 L 11.905041 0.5975459999999999 Z M 12.322428000000002 1.031718 Q 12.322428000000002 0.7989659999999998 12.419781000000002 0.6165689999999999 Q 12.517134000000002 0.4341719999999998 12.696174000000001 0.33234299999999983 Q 12.875214000000001 0.23051399999999989 13.107966000000001 0.23051399999999989 Q 13.403382000000002 0.23051399999999989 13.604802000000001 0.3882929999999998 Q 13.806222000000002 0.5460719999999999 13.864410000000001 0.81687 L 13.392192000000001 0.81687 Q 13.349670000000001 0.7273499999999999 13.274697000000002 0.6803519999999998 Q 13.199724000000002 0.633354 13.101252000000002 0.633354 Q 12.949068000000002 0.633354 12.858429000000001 0.7418969999999998 Q 12.767790000000002 0.8504399999999999 12.767790000000002 1.031718 Q 12.767790000000002 1.215234 12.858429000000001 1.3237769999999998 Q 12.949068000000002 1.4323199999999998 13.101252000000002 1.4323199999999998 Q 13.199724000000002 1.4323199999999998 13.274697000000002 1.385322 Q 13.349670000000001 1.3383239999999998 13.392192000000001 1.2488039999999998 L 13.864410000000001 1.2488039999999998 Q 13.806222000000002 1.519602 13.604802000000001 1.6773809999999998 Q 13.403382000000002 1.83516 13.107966000000001 1.83516 Q 12.875214000000001 1.83516 12.696174000000001 1.733331 Q 12.517134000000002 1.6315019999999998 12.419781000000002 1.4491049999999999 Q 12.322428000000002 1.266708 12.322428000000002 1.031718 Z M 15.738735000000002 0.24617999999999984 L 15.738735000000002 1.8239699999999999 L 15.300087000000001 1.8239699999999999 L 15.300087000000001 1.190616 L 14.765205000000002 1.190616 L 14.765205000000002 1.8239699999999999 L 14.326557000000001 1.8239699999999999 L 14.326557000000001 0.24617999999999984 L 14.765205000000002 0.24617999999999984 L 14.765205000000002 0.8392499999999998 L 15.300087000000001 0.8392499999999998 L 15.300087000000001 0.24617999999999984 Z" fill="#ffffff" fill-rule="nonzero"></path></g><g><path d=" M 4.447599681818183 2.7970651363636363 L 4.39987240909091 2.7970651363636363 L 4.136008772727274 2.3961560454545454 L 4.136008772727274 2.7970651363636363 L 4.088281500000001 2.7970651363636363 L 4.088281500000001 2.3204742272727272 L 4.136008772727274 2.3204742272727272 L 4.39987240909091 2.7207015 L 4.39987240909091 2.3204742272727272 L 4.447599681818183 2.3204742272727272 Z M 4.610554227272728 2.3593378636363638 L 4.610554227272728 2.537292409090909 L 4.791236045454546 2.537292409090909 L 4.791236045454546 2.5768378636363636 L 4.610554227272728 2.5768378636363636 L 4.610554227272728 2.7575196818181817 L 4.811690590909092 2.7575196818181817 L 4.811690590909092 2.7970651363636363 L 4.562826954545455 2.7970651363636363 L 4.562826954545455 2.3197924090909092 L 4.811690590909092 2.3197924090909092 L 4.811690590909092 2.3593378636363638 Z M 5.490781500000001 2.3204742272727272 L 5.355781500000001 2.7970651363636363 L 5.302599681818182 2.7970651363636363 L 5.182599681818182 2.3907015 L 5.05987240909091 2.7970651363636363 L 5.008054227272728 2.7977469545454543 L 4.8757815 2.3204742272727272 L 4.926917863636365 2.3204742272727272 L 5.036008772727273 2.7384287727272727 L 5.158054227272728 2.3204742272727272 L 5.211236045454546 2.3204742272727272 L 5.3298724090909095 2.7384287727272727 L 5.439645136363637 2.3204742272727272 Z M 5.618281500000001 2.3593378636363638 L 5.618281500000001 2.537292409090909 L 5.798963318181819 2.537292409090909 L 5.798963318181819 2.5768378636363636 L 5.618281500000001 2.5768378636363636 L 5.618281500000001 2.7575196818181817 L 5.819417863636365 2.7575196818181817 L 5.819417863636365 2.7970651363636363 L 5.570554227272728 2.7970651363636363 L 5.570554227272728 2.3197924090909092 L 5.819417863636365 2.3197924090909092 L 5.819417863636365 2.3593378636363638 Z M 6.06487240909091 2.8018378636363637 Q 6.0178269545454555 2.8018378636363637 5.982031500000001 2.785474227272727 Q 5.946236045454546 2.769110590909091 5.9257815 2.739792409090909 Q 5.905326954545455 2.7104742272727274 5.903963318181819 2.6743378636363637 L 5.9544178636363645 2.6743378636363637 Q 5.957826954545455 2.709110590909091 5.985099681818182 2.735360590909091 Q 6.01237240909091 2.7616105909090907 6.06487240909091 2.7616105909090907 Q 6.1132815 2.7616105909090907 6.141576954545455 2.736724227272727 Q 6.169872409090909 2.7118378636363634 6.169872409090909 2.6736560454545453 Q 6.169872409090909 2.642974227272727 6.154190590909091 2.624224227272727 Q 6.138508772727273 2.6054742272727274 6.115326954545456 2.596269681818182 Q 6.092145136363637 2.5870651363636363 6.051236045454546 2.5761560454545456 Q 6.003508772727273 2.5632015 5.975554227272728 2.5509287727272727 Q 5.947599681818183 2.5386560454545455 5.927826954545456 2.5127469545454546 Q 5.908054227272728 2.4868378636363637 5.908054227272728 2.442519681818182 Q 5.908054227272728 2.4057015 5.927145136363637 2.376724227272727 Q 5.946236045454546 2.3477469545454546 5.981008772727273 2.331383318181818 Q 6.015781500000001 2.315019681818182 6.060781500000001 2.315019681818182 Q 6.126917863636364 2.315019681818182 6.167486045454546 2.3474060454545453 Q 6.2080542272727275 2.379792409090909 6.214190590909092 2.4309287727272726 L 6.16237240909091 2.4309287727272726 Q 6.157599681818183 2.401610590909091 6.130326954545455 2.3787696818181816 Q 6.103054227272728 2.355928772727273 6.056690590909091 2.355928772727273 Q 6.0137360454545465 2.355928772727273 5.985099681818182 2.3787696818181816 Q 5.956463318181819 2.401610590909091 5.956463318181819 2.4411560454545453 Q 5.956463318181819 2.4711560454545456 5.972145136363637 2.489565136363636 Q 5.987826954545455 2.5079742272727272 6.011349681818182 2.5175196818181815 Q 6.03487240909091 2.5270651363636363 6.075099681818182 2.537974227272727 Q 6.121463318181819 2.5509287727272727 6.150099681818182 2.563542409090909 Q 6.178736045454546 2.5761560454545456 6.198508772727274 2.6020651363636365 Q 6.218281500000001 2.6279742272727273 6.218281500000001 2.671610590909091 Q 6.218281500000001 2.7050196818181815 6.200554227272728 2.735019681818182 Q 6.1828269545454555 2.7650196818181816 6.148054227272728 2.7834287727272726 Q 6.1132815 2.8018378636363637 6.06487240909091 2.8018378636363637 Z M 6.596008772727273 2.3204742272727272 L 6.596008772727273 2.360019681818182 L 6.463736045454546 2.360019681818182 L 6.463736045454546 2.7970651363636363 L 6.416008772727273 2.7970651363636363 L 6.416008772727273 2.360019681818182 L 6.283054227272728 2.360019681818182 L 6.283054227272728 2.3204742272727272 Z M 7.151008772727272 2.3204742272727272 L 7.151008772727272 2.360019681818182 L 7.0187360454545455 2.360019681818182 L 7.0187360454545455 2.7970651363636363 L 6.971008772727273 2.7970651363636363 L 6.971008772727273 2.360019681818182 L 6.838054227272727 2.360019681818182 L 6.838054227272727 2.3204742272727272 Z M 7.281236045454546 2.3593378636363638 L 7.281236045454546 2.537292409090909 L 7.461917863636364 2.537292409090909 L 7.461917863636364 2.5768378636363636 L 7.281236045454546 2.5768378636363636 L 7.281236045454546 2.7575196818181817 L 7.482372409090909 2.7575196818181817 L 7.482372409090909 2.7970651363636363 L 7.233508772727273 2.7970651363636363 L 7.233508772727273 2.3197924090909092 L 7.482372409090909 2.3197924090909092 L 7.482372409090909 2.3593378636363638 Z M 7.5614633181818185 2.5584287727272725 Q 7.5614633181818185 2.4882014999999997 7.592145136363636 2.4326333181818183 Q 7.622826954545454 2.3770651363636364 7.676008772727273 2.346042409090909 Q 7.7291905909090906 2.315019681818182 7.794645136363636 2.315019681818182 Q 7.8744178636363635 2.315019681818182 7.9313496818181815 2.3528605909090907 Q 7.9882815 2.3907015 8.014190590909092 2.4595651363636364 L 7.9582815 2.4595651363636364 Q 7.9378269545454545 2.4111560454545455 7.895895136363636 2.383883318181818 Q 7.853963318181818 2.356610590909091 7.794645136363636 2.356610590909091 Q 7.742145136363636 2.356610590909091 7.700213318181818 2.3811560454545453 Q 7.6582815 2.4057015 7.634417863636363 2.4517242272727273 Q 7.610554227272727 2.4977469545454545 7.610554227272727 2.5584287727272725 Q 7.610554227272727 2.619110590909091 7.634417863636363 2.664792409090909 Q 7.6582815 2.7104742272727274 7.700213318181818 2.735019681818182 Q 7.742145136363636 2.759565136363636 7.794645136363636 2.759565136363636 Q 7.853963318181818 2.759565136363636 7.895895136363636 2.732633318181818 Q 7.9378269545454545 2.7057015 7.9582815 2.657974227272727 L 8.014190590909092 2.657974227272727 Q 7.9882815 2.7261560454545455 7.931008772727273 2.7636560454545456 Q 7.873736045454545 2.801156045454545 7.794645136363636 2.801156045454545 Q 7.7291905909090906 2.801156045454545 7.676008772727273 2.770133318181818 Q 7.622826954545454 2.7391105909090907 7.592145136363636 2.683883318181818 Q 7.5614633181818185 2.6286560454545453 7.5614633181818185 2.5584287727272725 Z M 8.469645136363637 2.3204742272727272 L 8.469645136363637 2.7970651363636363 L 8.421917863636365 2.7970651363636363 L 8.421917863636365 2.5741105909090907 L 8.163508772727273 2.5741105909090907 L 8.163508772727273 2.7970651363636363 L 8.1157815 2.7970651363636363 L 8.1157815 2.3204742272727272 L 8.163508772727273 2.3204742272727272 L 8.163508772727273 2.5345651363636366 L 8.421917863636365 2.5345651363636366 L 8.421917863636365 2.3204742272727272 Z M 8.944872409090909 2.7970651363636363 L 8.897145136363635 2.7970651363636363 L 8.633281499999999 2.3961560454545454 L 8.633281499999999 2.7970651363636363 L 8.585554227272727 2.7970651363636363 L 8.585554227272727 2.3204742272727272 L 8.633281499999999 2.3204742272727272 L 8.897145136363635 2.7207015 L 8.897145136363635 2.3204742272727272 L 8.944872409090909 2.3204742272727272 Z M 9.274190590909091 2.8018378636363637 Q 9.208054227272727 2.8018378636363637 9.15419059090909 2.770815136363636 Q 9.100326954545455 2.739792409090909 9.069304227272728 2.6842242272727272 Q 9.0382815 2.6286560454545453 9.0382815 2.5584287727272725 Q 9.0382815 2.4882014999999997 9.069304227272728 2.4326333181818183 Q 9.100326954545455 2.3770651363636364 9.15419059090909 2.346042409090909 Q 9.208054227272727 2.315019681818182 9.274190590909091 2.315019681818182 Q 9.341008772727273 2.315019681818182 9.394872409090908 2.346042409090909 Q 9.448736045454545 2.3770651363636364 9.479417863636364 2.4326333181818183 Q 9.51009968181818 2.4882014999999997 9.51009968181818 2.5584287727272725 Q 9.51009968181818 2.6286560454545453 9.479417863636364 2.6842242272727272 Q 9.448736045454545 2.739792409090909 9.394872409090908 2.770815136363636 Q 9.341008772727273 2.8018378636363637 9.274190590909091 2.8018378636363637 Z M 9.274190590909091 2.7602469545454547 Q 9.32737240909091 2.7602469545454547 9.369645136363635 2.7357015 Q 9.411917863636363 2.7111560454545454 9.436463318181818 2.665133318181818 Q 9.461008772727272 2.619110590909091 9.461008772727272 2.5584287727272725 Q 9.461008772727272 2.4977469545454545 9.436463318181818 2.452065136363636 Q 9.411917863636363 2.406383318181818 9.369645136363635 2.3818378636363637 Q 9.32737240909091 2.357292409090909 9.274190590909091 2.357292409090909 Q 9.221008772727272 2.357292409090909 9.178736045454546 2.3818378636363637 Q 9.136463318181818 2.406383318181818 9.111917863636362 2.452065136363636 Q 9.087372409090909 2.4977469545454545 9.087372409090909 2.5584287727272725 Q 9.087372409090909 2.619110590909091 9.111917863636362 2.665133318181818 Q 9.136463318181818 2.7111560454545454 9.178736045454546 2.7357015 Q 9.221008772727272 2.7602469545454547 9.274190590909091 2.7602469545454547 Z M 9.651917863636363 2.7582014999999998 L 9.823054227272728 2.7582014999999998 L 9.823054227272728 2.7970651363636363 L 9.604190590909091 2.7970651363636363 L 9.604190590909091 2.3204742272727272 L 9.651917863636363 2.3204742272727272 Z M 10.112145136363637 2.8018378636363637 Q 10.046008772727273 2.8018378636363637 9.992145136363636 2.770815136363636 Q 9.9382815 2.739792409090909 9.907258772727273 2.6842242272727272 Q 9.876236045454545 2.6286560454545453 9.876236045454545 2.5584287727272725 Q 9.876236045454545 2.4882014999999997 9.907258772727273 2.4326333181818183 Q 9.9382815 2.3770651363636364 9.992145136363636 2.346042409090909 Q 10.046008772727273 2.315019681818182 10.112145136363637 2.315019681818182 Q 10.178963318181818 2.315019681818182 10.232826954545454 2.346042409090909 Q 10.28669059090909 2.3770651363636364 10.31737240909091 2.4326333181818183 Q 10.348054227272726 2.4882014999999997 10.348054227272726 2.5584287727272725 Q 10.348054227272726 2.6286560454545453 10.31737240909091 2.6842242272727272 Q 10.28669059090909 2.739792409090909 10.232826954545454 2.770815136363636 Q 10.178963318181818 2.8018378636363637 10.112145136363637 2.8018378636363637 Z M 10.112145136363637 2.7602469545454547 Q 10.165326954545455 2.7602469545454547 10.20759968181818 2.7357015 Q 10.249872409090909 2.7111560454545454 10.274417863636364 2.665133318181818 Q 10.298963318181817 2.619110590909091 10.298963318181817 2.5584287727272725 Q 10.298963318181817 2.4977469545454545 10.274417863636364 2.452065136363636 Q 10.249872409090909 2.406383318181818 10.20759968181818 2.3818378636363637 Q 10.165326954545455 2.357292409090909 10.112145136363637 2.357292409090909 Q 10.058963318181817 2.357292409090909 10.016690590909091 2.3818378636363637 Q 9.974417863636363 2.406383318181818 9.949872409090908 2.452065136363636 Q 9.925326954545454 2.4977469545454545 9.925326954545454 2.5584287727272725 Q 9.925326954545454 2.619110590909091 9.949872409090908 2.665133318181818 Q 9.974417863636363 2.7111560454545454 10.016690590909091 2.7357015 Q 10.058963318181817 2.7602469545454547 10.112145136363637 2.7602469545454547 Z M 10.817145136363637 2.4595651363636364 Q 10.79669059090909 2.412519681818182 10.754758772727273 2.3855878636363634 Q 10.712826954545456 2.3586560454545453 10.656236045454547 2.3586560454545453 Q 10.603054227272727 2.3586560454545453 10.560781500000001 2.3832015 Q 10.518508772727273 2.4077469545454546 10.493963318181818 2.4530878636363638 Q 10.469417863636364 2.498428772727273 10.469417863636364 2.5584287727272725 Q 10.469417863636364 2.6184287727272726 10.493963318181818 2.664110590909091 Q 10.518508772727273 2.709792409090909 10.560781500000001 2.7343378636363638 Q 10.603054227272727 2.758883318181818 10.656236045454547 2.758883318181818 Q 10.706008772727273 2.758883318181818 10.745895136363636 2.7374060454545455 Q 10.7857815 2.7159287727272727 10.809986045454545 2.676042409090909 Q 10.834190590909092 2.6361560454545456 10.837599681818181 2.5829742272727274 L 10.637145136363637 2.5829742272727274 L 10.637145136363637 2.544110590909091 L 10.888054227272727 2.544110590909091 L 10.888054227272727 2.578883318181818 Q 10.884645136363636 2.641610590909091 10.853963318181819 2.6924060454545455 Q 10.8232815 2.7432015 10.771804227272728 2.772519681818182 Q 10.720326954545454 2.8018378636363637 10.656236045454547 2.8018378636363637 Q 10.590099681818183 2.8018378636363637 10.536236045454546 2.770815136363636 Q 10.48237240909091 2.739792409090909 10.451349681818183 2.6842242272727272 Q 10.420326954545455 2.6286560454545453 10.420326954545455 2.5584287727272725 Q 10.420326954545455 2.4882014999999997 10.451349681818183 2.4326333181818183 Q 10.48237240909091 2.3770651363636364 10.536236045454546 2.346042409090909 Q 10.590099681818183 2.315019681818182 10.656236045454547 2.315019681818182 Q 10.732599681818183 2.315019681818182 10.78987240909091 2.3532015 Q 10.847145136363636 2.391383318181818 10.873054227272728 2.4595651363636364 Z M 11.02987240909091 2.3204742272727272 L 11.02987240909091 2.7970651363636363 L 10.982145136363638 2.7970651363636363 L 10.982145136363638 2.3204742272727272 Z M 11.192826954545454 2.3593378636363638 L 11.192826954545454 2.537292409090909 L 11.373508772727273 2.537292409090909 L 11.373508772727273 2.5768378636363636 L 11.192826954545454 2.5768378636363636 L 11.192826954545454 2.7575196818181817 L 11.393963318181818 2.7575196818181817 L 11.393963318181818 2.7970651363636363 L 11.145099681818182 2.7970651363636363 L 11.145099681818182 2.3197924090909092 L 11.393963318181818 2.3197924090909092 L 11.393963318181818 2.3593378636363638 Z M 11.639417863636364 2.8018378636363637 Q 11.59237240909091 2.8018378636363637 11.556576954545456 2.785474227272727 Q 11.5207815 2.769110590909091 11.500326954545455 2.739792409090909 Q 11.479872409090909 2.7104742272727274 11.478508772727274 2.6743378636363637 L 11.528963318181818 2.6743378636363637 Q 11.53237240909091 2.709110590909091 11.559645136363637 2.735360590909091 Q 11.586917863636364 2.7616105909090907 11.639417863636364 2.7616105909090907 Q 11.687826954545455 2.7616105909090907 11.716122409090909 2.736724227272727 Q 11.744417863636365 2.7118378636363634 11.744417863636365 2.6736560454545453 Q 11.744417863636365 2.642974227272727 11.728736045454546 2.624224227272727 Q 11.713054227272728 2.6054742272727274 11.68987240909091 2.596269681818182 Q 11.666690590909091 2.5870651363636363 11.6257815 2.5761560454545456 Q 11.578054227272728 2.5632015 11.550099681818182 2.5509287727272727 Q 11.522145136363637 2.5386560454545455 11.50237240909091 2.5127469545454546 Q 11.482599681818183 2.4868378636363637 11.482599681818183 2.442519681818182 Q 11.482599681818183 2.4057015 11.50169059090909 2.376724227272727 Q 11.5207815 2.3477469545454546 11.555554227272728 2.331383318181818 Q 11.590326954545455 2.315019681818182 11.635326954545455 2.315019681818182 Q 11.701463318181819 2.315019681818182 11.7420315 2.3474060454545453 Q 11.782599681818182 2.379792409090909 11.788736045454545 2.4309287727272726 L 11.736917863636364 2.4309287727272726 Q 11.732145136363636 2.401610590909091 11.704872409090909 2.3787696818181816 Q 11.677599681818181 2.355928772727273 11.631236045454546 2.355928772727273 Q 11.5882815 2.355928772727273 11.559645136363637 2.3787696818181816 Q 11.531008772727272 2.401610590909091 11.531008772727272 2.4411560454545453 Q 11.531008772727272 2.4711560454545456 11.54669059090909 2.489565136363636 Q 11.562372409090909 2.5079742272727272 11.585895136363638 2.5175196818181815 Q 11.609417863636365 2.5270651363636363 11.649645136363636 2.537974227272727 Q 11.696008772727273 2.5509287727272727 11.724645136363637 2.563542409090909 Q 11.7532815 2.5761560454545456 11.773054227272727 2.6020651363636365 Q 11.792826954545454 2.6279742272727273 11.792826954545454 2.671610590909091 Q 11.792826954545454 2.7050196818181815 11.775099681818181 2.735019681818182 Q 11.757372409090909 2.7650196818181816 11.722599681818181 2.7834287727272726 Q 11.687826954545455 2.8018378636363637 11.639417863636364 2.8018378636363637 Z" fill="#3361e1" fill-rule="nonzero"></path></g><g clip-path="url(&quot;#SvgjsClipPath1005&quot;)"><path d=" M 7.8724374385008815 -0.4299999999999997 C 10.607298513846288 -0.4158950257535814 12.887353674680375 -2.5192303920569508 13.093452738460858 -5.246351076523764 C 13.299551802241341 -7.973471760990575 11.36150235207576 -10.395585616345354 8.655583863528928 -10.792661408957228 C 5.949665374982094 -11.189737201569102 3.3974490339735586 -9.426540403625745 2.811356586001645 -6.75518125626869 L 5.127402534603695 -6.75518125626869 C 5.661663091144751 -8.075878310654803 7.05685245539379 -8.832818669481128 8.455285166390134 -8.560677153803848 C 9.853717877386476 -8.288535638126566 10.863230601299504 -7.063629058345288 10.863230601299504 -5.638962412515567 C 10.863230601299504 -4.214295766685844 9.853717877386476 -2.9893891869045675 8.455285166390134 -2.717247671227284 C 7.05685245539379 -2.4451061555500058 5.661663091144751 -3.20204651437633 5.127402534603695 -4.522743568762442 L 2.8113565860016454 -4.522743568762442 C 3.3266663103722314 -2.1384740468412318 5.433122002782496 -0.43504680684014474 7.872437438500883 -0.4299999999999997 Z" fill="#ffffff" transform="matrix(1,0,0,1,0,0)" fill-rule="nonzero"></path><path d=" M 7.8724374385008815 -4.001847327510885 C 8.535395984856876 -3.998200517750078 9.135105811467195 -4.394750320781406 9.391339970710117 -5.0062005550973 C 9.64757412995304 -5.617650789413192 9.509741071004672 -6.32327510183312 9.042246170726653 -6.793355788122115 C 8.574751270448633 -7.26343647441111 7.869897959723123 -7.405159559250695 7.257043676133037 -7.1523019698981685 C 6.644189392542952 -6.899444380545642 6.244337708474971 -6.301930988925706 6.244327678344956 -5.638962412515568 C 6.241886304479305 -4.737314119503663 6.970789395503407 -4.004379353663422 7.872437438500888 -4.001847327510885 Z" fill="#3361e1" transform="matrix(1,0,0,1,0,0)" fill-rule="nonzero"></path></g></g><defs><clipPath id="SvgjsClipPath1005"><path d=" M 2.8113565860016454 -10.847924825031134 h 10.241349827996709 v 10.417924825031134 h -10.241349827996709 Z"></path></clipPath></defs></svg>