<svg xmlns="http://www.w3.org/2000/svg" version="1.1" xmlns:xlink="http://www.w3.org/1999/xlink" xmlns:svgjs="http://svgjs.dev/svgjs" viewBox="0 0 15.844996686419048 13.578160960286398"><g transform="matrix(1,0,0,1,1.2215925932095235,9.539818304576874)"><g><path d=" M 0.8141595000000001 1.615152 Q 0.627627 1.615152 0.49376250000000005 1.553706 Q 0.35989800000000005 1.49226 0.27540975 1.3847295 Q 0.19092150000000002 1.277199 0.1514205 1.13784825 Q 0.11191950000000002 0.9984974999999999 0.11191950000000002 0.8448824999999999 L 0.11191950000000002 0.04388999999999976 L 0.5398470000000001 0.04388999999999976 L 0.5398470000000001 0.8448824999999999 Q 0.5398470000000001 0.9216899999999999 0.5552085000000001 0.991914 Q 0.57057 1.062138 0.6034875000000001 1.1170005 Q 0.6364050000000001 1.1718629999999999 0.6879757500000001 1.2036832499999999 Q 0.7395465000000001 1.2355034999999999 0.8141595000000001 1.2355034999999999 Q 0.8909670000000001 1.2355034999999999 0.9436350000000001 1.2036832499999999 Q 0.9963030000000002 1.1718629999999999 1.0281232500000002 1.11590325 Q 1.0599435000000001 1.0599435 1.0753050000000002 0.9897194999999999 Q 1.0906665000000002 0.9194954999999999 1.0906665000000002 0.8448824999999999 L 1.0906665000000002 0.04388999999999976 L 1.5185940000000002 0.04388999999999976 L 1.5185940000000002 0.8448824999999999 Q 1.5185940000000002 1.0072755 1.4758012500000002 1.1477235 Q 1.4330085000000001 1.2881715 1.3474230000000003 1.3935075 Q 1.2618375000000002 1.4988435 1.12907025 1.55699775 Q 0.9963030000000002 1.615152 0.8141595000000001 1.615152 Z M 1.786323 1.601985 L 1.786323 0.04388999999999976 L 2.2142505000000003 0.04388999999999976 L 2.2142505000000003 1.22892 L 2.9208795000000003 1.22892 L 2.9208795000000003 1.601985 Z M 4.097131500000001 0.41695499999999974 L 3.6494535000000003 0.41695499999999974 L 3.6494535000000003 1.601985 L 3.2215260000000003 1.601985 L 3.2215260000000003 0.41695499999999974 L 2.7716535 0.41695499999999974 L 2.7716535 0.04388999999999976 L 4.097131500000001 0.04388999999999976 Z M 4.2748859999999995 1.601985 L 4.2748859999999995 0.04388999999999976 L 4.990293 0.04388999999999976 Q 5.104407 0.04388999999999976 5.200965 0.08997449999999985 Q 5.297523 0.1360589999999997 5.367747 0.21396374999999979 Q 5.437971 0.29186849999999986 5.47637475 0.3884264999999998 Q 5.5147785 0.48498449999999993 5.5147785 0.583737 Q 5.5147785 0.6737114999999999 5.4884445 0.7571024999999999 Q 5.4621105 0.8404934999999999 5.411637 0.9096202499999999 Q 5.3611635 0.9787469999999999 5.2909395 1.0292204999999999 L 5.6201145 1.601985 L 5.1504915 1.601985 L 4.8761790000000005 1.123584 L 4.7028134999999995 1.123584 L 4.7028134999999995 1.601985 Z M 4.7028134999999995 0.7505189999999999 L 4.972737 0.7505189999999999 Q 4.999071 0.7505189999999999 5.0232105 0.7307684999999999 Q 5.04735 0.7110179999999999 5.06380875 0.6737114999999999 Q 5.0802675 0.6364049999999999 5.0802675 0.583737 Q 5.0802675 0.5288744999999999 5.06161425 0.49266524999999994 Q 5.042961 0.45645599999999975 5.01552975 0.43670549999999975 Q 4.9880984999999995 0.41695499999999974 4.9617645 0.41695499999999974 L 4.7028134999999995 0.41695499999999974 Z M 6.1380165 0.04388999999999976 L 6.6164175 0.04388999999999976 L 7.1123745000000005 1.601985 L 6.6778635 1.601985 L 6.5835 1.2969495 L 6.1687395 1.2969495 L 6.0765705 1.601985 L 5.639865 1.601985 Z M 6.5154705 1.0116645 L 6.377217 0.4630394999999998 L 6.23238 1.0116645 Z M 8.86578 0.41695499999999974 L 8.418102000000001 0.41695499999999974 L 8.418102000000001 1.601985 L 7.990174500000001 1.601985 L 7.990174500000001 0.41695499999999974 L 7.5403020000000005 0.41695499999999974 L 7.5403020000000005 0.04388999999999976 L 8.86578 0.04388999999999976 Z M 10.1539515 1.22892 L 10.1539515 1.601985 L 9.0435345 1.601985 L 9.0435345 0.04388999999999976 L 10.134201000000001 0.04388999999999976 L 10.134201000000001 0.41695499999999974 L 9.471462 0.41695499999999974 L 9.471462 0.6364049999999999 L 10.037643000000001 0.6364049999999999 L 10.037643000000001 0.9831359999999999 L 9.471462 0.9831359999999999 L 9.471462 1.22892 Z M 10.265871 0.8097705 Q 10.265871 0.6671279999999998 10.31963625 0.5299717499999999 Q 10.3734015 0.39281549999999976 10.476543 0.2808959999999998 Q 10.579684499999999 0.16897649999999986 10.72781325 0.10204424999999984 Q 10.875942 0.03511199999999981 11.0624745 0.03511199999999981 Q 11.2863135 0.03511199999999981 11.4530955 0.12837824999999992 Q 11.6198775 0.2216444999999998 11.701074 0.37525949999999986 L 11.3740935 0.6078764999999998 Q 11.345565 0.5310689999999998 11.29179975 0.4893734999999999 Q 11.2380345 0.4476779999999998 11.17549125 0.43121924999999983 Q 11.112948 0.41476049999999987 11.0536965 0.41476049999999987 Q 10.961527499999999 0.41476049999999987 10.89459525 0.45096974999999984 Q 10.827663 0.4871789999999998 10.784870249999999 0.5464304999999998 Q 10.7420775 0.6056819999999998 10.72122975 0.6781004999999999 Q 10.700382 0.7505189999999999 10.700382 0.8229374999999999 Q 10.700382 0.9041339999999999 10.7245215 0.9787469999999999 Q 10.748661 1.05336 10.7947455 1.11151425 Q 10.84083 1.1696685 10.90776225 1.202586 Q 10.9746945 1.2355034999999999 11.0580855 1.2355034999999999 Q 11.117337 1.2355034999999999 11.178783 1.21685025 Q 11.240229 1.198197 11.2907025 1.1565015 Q 11.341176 1.114806 11.36751 1.044582 L 11.7164355 1.2530595 Q 11.670351 1.3671735 11.5628205 1.44837 Q 11.45529 1.5295665 11.319231 1.57235925 Q 11.183171999999999 1.615152 11.0493075 1.615152 Q 10.875942 1.615152 10.73220225 1.54602525 Q 10.5884625 1.4768985 10.48422375 1.36168725 Q 10.379985 1.246476 10.322928 1.10273625 Q 10.265871 0.9589964999999999 10.265871 0.8097705 Z M 13.267947000000001 0.04388999999999976 L 13.267947000000001 1.601985 L 12.8400195 1.601985 L 12.8400195 0.991914 L 12.317728500000001 0.991914 L 12.317728500000001 1.601985 L 11.889801 1.601985 L 11.889801 0.04388999999999976 L 12.317728500000001 0.04388999999999976 L 12.317728500000001 0.6188489999999999 L 12.8400195 0.6188489999999999 L 12.8400195 0.04388999999999976 Z" fill="#000000" fill-rule="nonzero"></path></g><g><path d=" M 2.6950948500000003 2.4573905625000005 L 2.6950948500000003 2.7916108125000005 L 2.65482735 2.7916108125000005 L 2.65482735 2.3831833125000004 L 2.6881918500000004 2.3831833125000004 L 2.95625835 2.7237313125000004 L 2.95625835 2.3837585625000006 L 2.9965258500000003 2.3837585625000006 L 2.9965258500000003 2.7916108125000005 L 2.9591346 2.7916108125000005 Z M 3.4425746999999998 2.7559453125000006 L 3.4425746999999998 2.7916108125000005 L 3.16818045 2.7916108125000005 L 3.16818045 2.3831833125000004 L 3.4373974499999997 2.3831833125000004 L 3.4373974499999997 2.4188488125000003 L 3.20844795 2.4188488125000003 L 3.20844795 2.5661128125000006 L 3.4080597 2.5661128125000006 L 3.4080597 2.6000525625000006 L 3.20844795 2.6000525625000006 L 3.20844795 2.7559453125000006 Z M 3.74135955 2.3860595625000007 L 3.77932605 2.3860595625000007 L 3.83685105 2.5310225625000005 L 3.8949513 2.3860595625000007 L 3.93349305 2.3860595625000007 L 3.8621620500000002 2.5603603125000007 L 3.94039605 2.7450155625000003 L 4.0882353 2.3831833125000004 L 4.1319543 2.3831833125000004 L 3.95880405 2.7916108125000005 L 3.92313855 2.7916108125000005 L 3.8374263 2.5896980625000006 L 3.7511388 2.7916108125000005 L 3.71604855 2.7916108125000005 L 3.54347355 2.3831833125000004 L 3.5866173 2.3831833125000004 L 3.7350318 2.7450155625000003 L 3.81269055 2.5603603125000007 Z M 4.53313365 2.7559453125000006 L 4.53313365 2.7916108125000005 L 4.2587394000000005 2.7916108125000005 L 4.2587394000000005 2.3831833125000004 L 4.5279564 2.3831833125000004 L 4.5279564 2.4188488125000003 L 4.2990069 2.4188488125000003 L 4.2990069 2.5661128125000006 L 4.49861865 2.5661128125000006 L 4.49861865 2.6000525625000006 L 4.2990069 2.6000525625000006 L 4.2990069 2.7559453125000006 Z M 4.914754500000001 2.4596915625000007 Q 4.90612575 2.4499123125000004 4.8946207500000005 2.4421464375000004 Q 4.883115750000001 2.4343805625000003 4.8687345 2.4286280625000005 Q 4.854353250000001 2.4228755625000007 4.837958625000001 2.4194240625000005 Q 4.821564 2.4159725625000004 4.803156 2.4159725625000004 Q 4.749657750000001 2.4159725625000004 4.724634375000001 2.4363939375000006 Q 4.699611000000001 2.4568153125000007 4.699611000000001 2.4919055625000004 Q 4.699611000000001 2.5160660625000006 4.711403625000001 2.5298720625000004 Q 4.723196250000001 2.5436780625000006 4.74850725 2.5523068125000004 Q 4.773818250000001 2.5609355625000005 4.812935250000001 2.5701395625000005 Q 4.85665425 2.5793435625000005 4.888293000000001 2.5919990625000007 Q 4.919931750000001 2.6046545625000004 4.93718925 2.6262264375000006 Q 4.954446750000001 2.6477983125000004 4.954446750000001 2.6846143125000004 Q 4.954446750000001 2.7128015625000006 4.943517000000001 2.7335105625000007 Q 4.93258725 2.7542195625000003 4.9130287500000005 2.7680255625000005 Q 4.89347025 2.7818315625000007 4.8664335 2.7884469375000007 Q 4.839396750000001 2.7950623125000007 4.807182750000001 2.7950623125000007 Q 4.775544 2.7950623125000007 4.7464938750000005 2.7884469375000007 Q 4.71744375 2.7818315625000007 4.6915575 2.7688884375000007 Q 4.665671250000001 2.7559453125000006 4.6432365 2.7358115625000003 L 4.663370250000001 2.7030223125000004 Q 4.674300000000001 2.7145273125000005 4.689544125 2.7245941875000006 Q 4.704788250000001 2.7346610625000007 4.723483875 2.7427145625000007 Q 4.742179500000001 2.7507680625000006 4.763751375 2.7550824375000005 Q 4.78532325 2.7593968125000004 4.8083332500000004 2.7593968125000004 Q 4.857229500000001 2.7593968125000004 4.884553875000001 2.7415640625000006 Q 4.911878250000001 2.7237313125000004 4.911878250000001 2.6886410625000003 Q 4.911878250000001 2.6633300625000005 4.89807225 2.6480859375000003 Q 4.8842662500000005 2.6328418125000006 4.85665425 2.6230625625000004 Q 4.8290422500000005 2.6132833125000006 4.788774750000001 2.6040793125000006 Q 4.74620625 2.5943000625000003 4.7168685 2.5822198125000004 Q 4.6875307500000005 2.5701395625000005 4.672861875000001 2.5502934375000006 Q 4.658193000000001 2.5304473125000007 4.658193000000001 2.4976580625000007 Q 4.658193000000001 2.4596915625000007 4.676888625 2.4335176875000006 Q 4.6955842500000005 2.4073438125000006 4.7283735 2.3938254375000003 Q 4.76116275 2.3803070625000005 4.80373125 2.3803070625000005 Q 4.830768000000001 2.3803070625000005 4.8540656250000005 2.3857719375000004 Q 4.87736325 2.3912368125000008 4.897209375 2.4015913125000004 Q 4.9170555 2.4119458125000004 4.934313 2.4274775625000005 Z M 5.3838133500000005 2.4188488125000003 L 5.238275100000001 2.4188488125000003 L 5.238275100000001 2.7916108125000005 L 5.1980076 2.7916108125000005 L 5.1980076 2.4188488125000003 L 5.052469350000001 2.4188488125000003 L 5.052469350000001 2.3831833125000004 L 5.3838133500000005 2.3831833125000004 Z M 5.9865603 2.4188488125000003 L 5.84102205 2.4188488125000003 L 5.84102205 2.7916108125000005 L 5.80075455 2.7916108125000005 L 5.80075455 2.4188488125000003 L 5.6552163 2.4188488125000003 L 5.6552163 2.3831833125000004 L 5.9865603 2.3831833125000004 Z M 6.39119115 2.7559453125000006 L 6.39119115 2.7916108125000005 L 6.116796900000001 2.7916108125000005 L 6.116796900000001 2.3831833125000004 L 6.3860139 2.3831833125000004 L 6.3860139 2.4188488125000003 L 6.1570644 2.4188488125000003 L 6.1570644 2.5661128125000006 L 6.35667615 2.5661128125000006 L 6.35667615 2.6000525625000006 L 6.1570644 2.6000525625000006 L 6.1570644 2.7559453125000006 Z M 6.501294 2.5845208125000005 Q 6.501294 2.5471295625000003 6.514237125 2.5111764375000005 Q 6.52718025 2.4752233125000007 6.551916 2.4455979375000005 Q 6.57665175 2.4159725625000004 6.6128925 2.3984274375000005 Q 6.64913325 2.3808823125000007 6.69515325 2.3808823125000007 Q 6.749802 2.3808823125000007 6.788631375 2.4059056875000007 Q 6.82746075 2.4309290625000006 6.84586875 2.4700460625000007 L 6.81423 2.4896045625000003 Q 6.80099925 2.4625678125000006 6.7808655 2.4467484375000006 Q 6.76073175 2.4309290625000006 6.738009375 2.4240260625000003 Q 6.715287 2.4171230625000004 6.69285225 2.4171230625000004 Q 6.65603625 2.4171230625000004 6.627848999999999 2.4317919375000003 Q 6.59966175 2.4464608125000007 6.580390875 2.4709089375000004 Q 6.56112 2.4953570625000006 6.55134075 2.5255576875000005 Q 6.5415615 2.5557583125000005 6.5415615 2.5868218125000007 Q 6.5415615 2.6207615625000007 6.5530665 2.6518250625000004 Q 6.5645715 2.6828885625000005 6.5852805 2.7067614375000004 Q 6.6059895 2.7306343125000003 6.633889125 2.7447279375000004 Q 6.6617887499999995 2.7588215625000005 6.694578 2.7588215625000005 Q 6.717588 2.7588215625000005 6.7417485 2.7507680625000006 Q 6.765909 2.7427145625000007 6.786905625 2.7260323125000006 Q 6.80790225 2.7093500625000004 6.82055775 2.6828885625000005 L 6.85392225 2.7001460625000004 Q 6.84126675 2.7306343125000003 6.81480525 2.7519185625000007 Q 6.78834375 2.7732028125000006 6.755842125 2.7841325625000004 Q 6.7233405 2.7950623125000007 6.692277 2.7950623125000007 Q 6.65028375 2.7950623125000007 6.6151935 2.7769419375000006 Q 6.58010325 2.7588215625000005 6.554504625 2.7286209375000006 Q 6.528906 2.6984203125000006 6.5150999999999994 2.6607414375000005 Q 6.501294 2.6230625625000004 6.501294 2.5845208125000005 Z M 7.314352349999999 2.3831833125000004 L 7.314352349999999 2.7916108125000005 L 7.274660099999999 2.7916108125000005 L 7.274660099999999 2.6006278125000004 L 7.03247985 2.6006278125000004 L 7.03247985 2.7916108125000005 L 6.99221235 2.7916108125000005 L 6.99221235 2.3831833125000004 L 7.03247985 2.3831833125000004 L 7.03247985 2.5649623125000005 L 7.274660099999999 2.5649623125000005 L 7.274660099999999 2.3831833125000004 Z M 7.52627445 2.4573905625000005 L 7.52627445 2.7916108125000005 L 7.48600695 2.7916108125000005 L 7.48600695 2.3831833125000004 L 7.5193714499999995 2.3831833125000004 L 7.78743795 2.7237313125000004 L 7.78743795 2.3837585625000006 L 7.82770545 2.3837585625000006 L 7.82770545 2.7916108125000005 L 7.7903142 2.7916108125000005 Z M 8.16388155 2.7944870625000005 Q 8.120737799999999 2.7944870625000005 8.08564755 2.7772295625000005 Q 8.0505573 2.7599720625000006 8.0252463 2.7303466875000004 Q 7.9999353 2.7007213125000007 7.986129299999999 2.6636176875000004 Q 7.972323299999999 2.6265140625000005 7.972323299999999 2.5873970625000005 Q 7.972323299999999 2.5465543125000005 7.98670455 2.5094506875000007 Q 8.0010858 2.4723470625000004 8.027259675 2.4432969375000004 Q 8.05343355 2.4142468125000005 8.088523799999999 2.3972769375000005 Q 8.123614049999999 2.3803070625000005 8.1644568 2.3803070625000005 Q 8.207600549999999 2.3803070625000005 8.2426908 2.3981398125000006 Q 8.27778105 2.4159725625000004 8.302804425 2.4458855625000004 Q 8.3278278 2.4757985625000005 8.3416338 2.5126145625000005 Q 8.3554398 2.5494305625000004 8.3554398 2.5879723125000007 Q 8.3554398 2.6288150625000006 8.34105855 2.6659186875000005 Q 8.3266773 2.7030223125000004 8.300791049999999 2.7320724375000007 Q 8.2749048 2.7611225625000007 8.23981455 2.7778048125000003 Q 8.204724299999999 2.7944870625000005 8.16388155 2.7944870625000005 Z M 8.0125908 2.5873970625000005 Q 8.0125908 2.6207615625000007 8.023520549999999 2.6515374375000005 Q 8.0344503 2.6823133125000007 8.054584049999999 2.7061861875000006 Q 8.0747178 2.7300590625000005 8.102617425 2.7441526875000006 Q 8.13051705 2.7582463125000007 8.16388155 2.7582463125000007 Q 8.198971799999999 2.7582463125000007 8.226871424999999 2.7435774375000004 Q 8.254771049999999 2.7289085625000005 8.274617175 2.7044604375000008 Q 8.2944633 2.6800123125000006 8.3048178 2.6495240625000007 Q 8.3151723 2.6190358125000004 8.3151723 2.5873970625000005 Q 8.3151723 2.5540325625000007 8.30424255 2.5235443125000003 Q 8.293312799999999 2.4930560625000004 8.272891425 2.4688955625000006 Q 8.25247005 2.4447350625000004 8.22485805 2.4309290625000006 Q 8.19724605 2.4171230625000004 8.16388155 2.4171230625000004 Q 8.12936655 2.4171230625000004 8.101466925 2.4315043125000004 Q 8.073567299999999 2.4458855625000004 8.053721175 2.4703336875000006 Q 8.033875049999999 2.4947818125000003 8.023232925 2.5252700625000006 Q 8.0125908 2.5557583125000005 8.0125908 2.5873970625000005 Z M 8.5006329 2.7916108125000005 L 8.5006329 2.3831833125000004 L 8.5409004 2.3831833125000004 L 8.5409004 2.7559453125000006 L 8.7767529 2.7559453125000006 L 8.7767529 2.7916108125000005 Z M 9.053103 2.7944870625000005 Q 9.00995925 2.7944870625000005 8.974869 2.7772295625000005 Q 8.93977875 2.7599720625000006 8.91446775 2.7303466875000004 Q 8.88915675 2.7007213125000007 8.875350749999999 2.6636176875000004 Q 8.86154475 2.6265140625000005 8.86154475 2.5873970625000005 Q 8.86154475 2.5465543125000005 8.875926 2.5094506875000007 Q 8.89030725 2.4723470625000004 8.916481124999999 2.4432969375000004 Q 8.942655 2.4142468125000005 8.97774525 2.3972769375000005 Q 9.0128355 2.3803070625000005 9.053678249999999 2.3803070625000005 Q 9.096822 2.3803070625000005 9.13191225 2.3981398125000006 Q 9.167002499999999 2.4159725625000004 9.192025874999999 2.4458855625000004 Q 9.217049249999999 2.4757985625000005 9.23085525 2.5126145625000005 Q 9.24466125 2.5494305625000004 9.24466125 2.5879723125000007 Q 9.24466125 2.6288150625000006 9.230279999999999 2.6659186875000005 Q 9.21589875 2.7030223125000004 9.1900125 2.7320724375000007 Q 9.164126249999999 2.7611225625000007 9.129036 2.7778048125000003 Q 9.09394575 2.7944870625000005 9.053103 2.7944870625000005 Z M 8.901812249999999 2.5873970625000005 Q 8.901812249999999 2.6207615625000007 8.912742 2.6515374375000005 Q 8.923671749999999 2.6823133125000007 8.9438055 2.7061861875000006 Q 8.96393925 2.7300590625000005 8.991838875 2.7441526875000006 Q 9.019738499999999 2.7582463125000007 9.053103 2.7582463125000007 Q 9.08819325 2.7582463125000007 9.116092875 2.7435774375000004 Q 9.1439925 2.7289085625000005 9.163838625 2.7044604375000008 Q 9.18368475 2.6800123125000006 9.19403925 2.6495240625000007 Q 9.20439375 2.6190358125000004 9.20439375 2.5873970625000005 Q 9.20439375 2.5540325625000007 9.193463999999999 2.5235443125000003 Q 9.18253425 2.4930560625000004 9.162112875 2.4688955625000006 Q 9.1416915 2.4447350625000004 9.114079499999999 2.4309290625000006 Q 9.0864675 2.4171230625000004 9.053103 2.4171230625000004 Q 9.018588 2.4171230625000004 8.990688375 2.4315043125000004 Q 8.96278875 2.4458855625000004 8.942942624999999 2.4703336875000006 Q 8.9230965 2.4947818125000003 8.912454375 2.5252700625000006 Q 8.901812249999999 2.5557583125000005 8.901812249999999 2.5873970625000005 Z M 9.553800599999999 2.7944870625000005 Q 9.51295785 2.7944870625000005 9.4778676 2.7769419375000006 Q 9.442777349999998 2.7593968125000004 9.416891099999999 2.7294838125000007 Q 9.391004849999998 2.6995708125000006 9.376911224999999 2.6627548125000007 Q 9.3628176 2.6259388125000007 9.3628176 2.5868218125000007 Q 9.3628176 2.5454038125000005 9.376911224999999 2.5083001875000006 Q 9.391004849999998 2.4711965625000003 9.416315849999998 2.4424340625000003 Q 9.441626849999999 2.4136715625000007 9.47614185 2.3969893125000006 Q 9.510656849999998 2.3803070625000005 9.5514996 2.3803070625000005 Q 9.61190085 2.3803070625000005 9.64986735 2.4050428125000005 Q 9.687833849999999 2.4297785625000006 9.70739235 2.4694708125000004 L 9.676328849999999 2.4901798125000005 Q 9.656770349999999 2.4522133125000005 9.623981099999998 2.4343805625000003 Q 9.59119185 2.4165478125000006 9.550924349999999 2.4165478125000006 Q 9.516984599999999 2.4165478125000006 9.489660225 2.4309290625000006 Q 9.462335849999999 2.4453103125000006 9.442777349999998 2.4694708125000004 Q 9.42321885 2.4936313125000007 9.413151974999998 2.5241195625000006 Q 9.403085099999998 2.5546078125000005 9.403085099999998 2.5873970625000005 Q 9.403085099999998 2.6219120625000008 9.414590099999998 2.6526879375000005 Q 9.4260951 2.6834638125000003 9.447379349999999 2.7073366875000007 Q 9.4686636 2.7312095625000006 9.496563225 2.7447279375000004 Q 9.524462849999999 2.7582463125000007 9.556676849999999 2.7582463125000007 Q 9.5940681 2.7582463125000007 9.627432599999999 2.7395506875000004 Q 9.660797099999998 2.7208550625000005 9.69128535 2.6817380625000005 L 9.69128535 2.7243065625000007 Q 9.633185099999999 2.7944870625000005 9.553800599999999 2.7944870625000005 Z M 9.684957599999999 2.6219120625000008 L 9.5940681 2.6219120625000008 L 9.5940681 2.5908485625000006 L 9.718897349999999 2.5908485625000006 L 9.718897349999999 2.7916108125000005 L 9.684957599999999 2.7916108125000005 Z M 9.870993449999999 2.7916108125000005 L 9.870993449999999 2.3831833125000004 L 9.911260949999999 2.3831833125000004 L 9.911260949999999 2.7916108125000005 Z M 10.3573098 2.7559453125000006 L 10.3573098 2.7916108125000005 L 10.08291555 2.7916108125000005 L 10.08291555 2.3831833125000004 L 10.35213255 2.3831833125000004 L 10.35213255 2.4188488125000003 L 10.12318305 2.4188488125000003 L 10.12318305 2.5661128125000006 L 10.3227948 2.5661128125000006 L 10.3227948 2.6000525625000006 L 10.12318305 2.6000525625000006 L 10.12318305 2.7559453125000006 Z M 10.738930649999999 2.4596915625000007 Q 10.730301899999999 2.4499123125000004 10.7187969 2.4421464375000004 Q 10.7072919 2.4343805625000003 10.69291065 2.4286280625000005 Q 10.678529399999999 2.4228755625000007 10.662134774999998 2.4194240625000005 Q 10.64574015 2.4159725625000004 10.627332149999999 2.4159725625000004 Q 10.573833899999999 2.4159725625000004 10.548810524999999 2.4363939375000006 Q 10.523787149999999 2.4568153125000007 10.523787149999999 2.4919055625000004 Q 10.523787149999999 2.5160660625000006 10.535579774999999 2.5298720625000004 Q 10.547372399999999 2.5436780625000006 10.572683399999999 2.5523068125000004 Q 10.5979944 2.5609355625000005 10.637111399999998 2.5701395625000005 Q 10.6808304 2.5793435625000005 10.712469149999999 2.5919990625000007 Q 10.7441079 2.6046545625000004 10.761365399999999 2.6262264375000006 Q 10.778622899999998 2.6477983125000004 10.778622899999998 2.6846143125000004 Q 10.778622899999998 2.7128015625000006 10.76769315 2.7335105625000007 Q 10.756763399999999 2.7542195625000003 10.737204899999998 2.7680255625000005 Q 10.7176464 2.7818315625000007 10.690609649999999 2.7884469375000007 Q 10.663572899999998 2.7950623125000007 10.631358899999999 2.7950623125000007 Q 10.59972015 2.7950623125000007 10.570670024999998 2.7884469375000007 Q 10.541619899999999 2.7818315625000007 10.51573365 2.7688884375000007 Q 10.489847399999999 2.7559453125000006 10.46741265 2.7358115625000003 L 10.4875464 2.7030223125000004 Q 10.498476149999998 2.7145273125000005 10.513720274999999 2.7245941875000006 Q 10.5289644 2.7346610625000007 10.547660024999999 2.7427145625000007 Q 10.566355649999998 2.7507680625000006 10.587927525 2.7550824375000005 Q 10.609499399999999 2.7593968125000004 10.6325094 2.7593968125000004 Q 10.681405649999999 2.7593968125000004 10.708730025 2.7415640625000006 Q 10.736054399999999 2.7237313125000004 10.736054399999999 2.6886410625000003 Q 10.736054399999999 2.6633300625000005 10.7222484 2.6480859375000003 Q 10.7084424 2.6328418125000006 10.6808304 2.6230625625000004 Q 10.653218399999998 2.6132833125000006 10.6129509 2.6040793125000006 Q 10.5703824 2.5943000625000003 10.54104465 2.5822198125000004 Q 10.511706899999998 2.5701395625000005 10.497038024999998 2.5502934375000006 Q 10.482369149999998 2.5304473125000007 10.482369149999998 2.4976580625000007 Q 10.482369149999998 2.4596915625000007 10.501064775 2.4335176875000006 Q 10.5197604 2.4073438125000006 10.55254965 2.3938254375000003 Q 10.5853389 2.3803070625000005 10.6279074 2.3803070625000005 Q 10.654944149999999 2.3803070625000005 10.678241774999998 2.3857719375000004 Q 10.7015394 2.3912368125000008 10.721385524999999 2.4015913125000004 Q 10.74123165 2.4119458125000004 10.758489149999999 2.4274775625000005 Z" fill="#3361e1" fill-rule="nonzero"></path></g><g clip-path="url(&quot;#SvgjsClipPath1005&quot;)"><path d=" M 6.655525009701925 -0.3849999999999998 C 8.738115406958233 -0.3742590946633628 10.474372149933025 -1.9759441219438596 10.631316111358394 -4.052640229409695 C 10.788260072783762 -6.129336336875529 9.312439889188896 -7.973770447879225 7.25188920498487 -8.276142747566142 C 5.191338520780844 -8.57851504725306 3.2478316672074112 -7.2358447547936375 2.8015236206838443 -5.201610929148229 L 4.5651872654829955 -5.201610929148229 C 4.972025446301628 -6.207318688107002 6.034458927304757 -6.783727024456722 7.099362209370836 -6.5764918883272925 C 8.164265491436916 -6.369256752197863 8.933007100903788 -5.436493218581672 8.933007100903788 -4.351612855683675 C 8.933007100903788 -3.2667324927856773 8.164265491436916 -2.3339689591694874 7.099362209370836 -2.126733823040057 C 6.034458927304757 -1.9194986869106287 4.972025446301628 -2.4959070232603473 4.5651872654829955 -3.5016147822191206 L 2.8015236206838448 -3.5016147822191206 C 3.193930786540135 -1.685999043786457 4.797991934949822 -0.3888431317615515 6.655525009701927 -0.3849999999999998 Z" fill="#000000" transform="matrix(1,0,0,1,0,0)" fill-rule="nonzero"></path><path d=" M 6.655525009701925 -3.1049534966507526 C 7.1603664127503865 -3.1021764594341477 7.617044061680378 -3.404148219269379 7.8121657825966615 -3.8697661615721968 C 8.007287503512947 -4.335384103875013 7.902327947220282 -4.872715389315437 7.546331659561563 -5.2306807470539365 C 7.190335371902842 -5.588646104792435 6.65359120247337 -5.696567906823709 6.186904079888575 -5.504017436086382 C 5.72021695730378 -5.311466965349054 5.415730822679349 -4.856461896595219 5.415723184758489 -4.351612855683676 C 5.413864084194094 -3.665009761414262 5.9689221058179225 -3.106881628722401 6.655525009701929 -3.1049534966507526 Z" fill="#3361e1" transform="matrix(1,0,0,1,0,0)" fill-rule="nonzero"></path></g></g><defs><clipPath id="SvgjsClipPath1005"><path d=" M 2.8015236206838448 -8.31822571136735 h 7.798764258632311 v 7.933225711367351 h -7.798764258632311 Z"></path></clipPath></defs></svg>